<svg width="713" height="104" viewBox="0 0 713 104" fill="none" xmlns="http://www.w3.org/2000/svg">
<path d="M0.888 58.376C0.888 50.0133 1.18667 41.3093 1.784 32.264C2.46667 23.2187 3.87467 14.4293 6.008 5.896C6.43467 4.18933 7.544 3.29333 9.336 3.20799C11.384 3.03733 13.9013 2.90933 16.888 2.824C19.8747 2.73867 22.904 2.696 25.976 2.696C32.2053 2.696 37.88 3.08 43 3.84799C48.2053 4.53066 52.6427 6.02399 56.312 8.328C60.0667 10.5467 62.968 13.7893 65.016 18.056C67.064 22.3227 68.088 27.9973 68.088 35.08C68.088 40.968 67.2773 46.0453 65.656 50.312C64.12 54.5787 62.0293 58.248 59.384 61.32C56.7387 64.392 53.7093 67.0373 50.296 69.256C46.8827 71.3893 43.384 73.2667 39.8 74.888C37.5813 75.912 35.7467 76.8507 34.296 77.704C32.8453 78.472 31.6933 79.2827 30.84 80.136C29.9867 80.904 29.3893 81.7573 29.048 82.696C28.7067 83.5493 28.536 84.5733 28.536 85.768C28.536 86.9627 28.664 88.2427 28.92 89.608C29.176 90.888 29.432 92.1253 29.688 93.32C30.0293 94.5147 30.328 95.624 30.584 96.648C30.84 97.5867 30.968 98.2693 30.968 98.696C30.968 99.976 30.1573 100.701 28.536 100.872C27.1707 101.043 25.5067 101.128 23.544 101.128C21.6667 101.213 19.6613 101.256 17.528 101.256C14.0293 101.256 10.744 101.128 7.672 100.872C6.73333 100.787 5.92267 100.573 5.24 100.232C4.64267 99.8907 4.216 99.08 3.96 97.8C3.02133 92.936 2.25333 87.1333 1.656 80.392C1.144 73.5653 0.888 66.2267 0.888 58.376ZM28.152 58.504C29.3467 58.504 30.8827 58.1627 32.76 57.48C34.7227 56.712 36.472 55.56 38.008 54.024C39.8853 52.1467 41.4213 49.416 42.616 45.832C43.8107 42.1627 44.408 38.1947 44.408 33.928C44.408 29.7467 43.64 26.4613 42.104 24.072C40.568 21.6827 37.88 20.488 34.04 20.488C32.76 20.488 31.736 20.616 30.968 20.872C30.2853 21.0427 29.688 21.384 29.176 21.896C27.7253 23.3467 26.6587 26.5467 25.976 31.496C25.3787 36.36 25.08 42.3333 25.08 49.416C25.08 52.5733 25.2933 54.8773 25.72 56.328C26.1467 57.7787 26.9573 58.504 28.152 58.504ZM74.766 59.144C74.766 44.552 75.3207 32.8187 76.43 23.944C77.6247 15.0693 78.5207 9.26666 79.118 6.536C79.374 5.34133 79.8007 4.53066 80.398 4.104C80.9953 3.67733 81.7207 3.37866 82.574 3.20799C86.158 2.952 89.9127 2.824 93.838 2.824C98.1047 2.824 102.03 2.952 105.614 3.20799C107.15 3.37866 107.875 4.14666 107.79 5.51199C107.79 6.36533 107.491 8.07199 106.894 10.632C106.297 13.1067 105.614 16.3493 104.846 20.36C104.078 24.2853 103.395 28.936 102.798 34.312C102.201 39.688 101.902 45.6613 101.902 52.232C101.902 58.632 102.158 64.52 102.67 69.896C103.267 75.272 103.865 80.008 104.462 84.104C105.145 88.1147 105.742 91.3573 106.254 93.832C106.851 96.3067 107.15 97.8853 107.15 98.568C107.15 99.336 106.937 99.848 106.51 100.104C106.169 100.36 105.614 100.573 104.846 100.744C102.883 101.085 100.878 101.256 98.83 101.256C96.782 101.256 94.734 101.256 92.686 101.256C90.5527 101.256 88.462 101.213 86.414 101.128C84.366 101.128 82.3607 101 80.398 100.744C79.4593 100.573 78.7767 100.317 78.35 99.976C77.9233 99.5493 77.5393 98.7813 77.198 97.672C76.942 96.392 76.6433 94.472 76.302 91.912C76.046 89.352 75.79 86.3653 75.534 82.952C75.278 79.4533 75.0647 75.6987 74.894 71.688C74.8087 67.592 74.766 63.4107 74.766 59.144ZM158.229 1.544C163.093 1.544 167.232 2.184 170.645 3.464C174.058 4.65866 176.832 6.32266 178.965 8.45599C181.184 10.504 182.805 12.936 183.829 15.752C184.853 18.4827 185.365 21.3413 185.365 24.328C185.365 25.7787 185.066 27.016 184.469 28.04C183.957 29.064 183.232 30.0453 182.293 30.984C181.098 32.1787 179.562 33.416 177.685 34.696C175.893 35.976 174.016 37.128 172.053 38.152C170.176 39.176 168.341 40.0293 166.549 40.712C164.842 41.3947 163.52 41.736 162.581 41.736C161.216 41.736 160.533 41.0107 160.533 39.56C160.533 38.9627 160.533 38.3653 160.533 37.768C160.618 37.0853 160.661 36.4027 160.661 35.72C160.661 34.44 160.533 33.1173 160.277 31.752C160.021 30.3013 159.594 29.0213 158.997 27.912C158.4 26.7173 157.632 25.7787 156.693 25.096C155.754 24.328 154.56 23.944 153.109 23.944C149.269 23.944 146.154 26.4613 143.765 31.496C141.376 36.4453 140.181 43.7413 140.181 53.384C140.181 58.504 140.522 62.7707 141.205 66.184C141.888 69.5973 142.826 72.328 144.021 74.376C145.301 76.424 146.794 77.9173 148.501 78.856C150.208 79.7093 152.128 80.136 154.261 80.136C157.504 80.136 159.936 79.24 161.557 77.448C163.264 75.656 164.117 73.1387 164.117 69.896C164.117 67.4213 163.605 65.544 162.581 64.264C161.642 62.8987 160.064 61.8747 157.845 61.192C156.65 60.8507 156.053 60.04 156.053 58.76C156.053 57.9067 156.224 57.3093 156.565 56.968C156.992 56.5413 157.93 56.1147 159.381 55.688C161.258 54.92 163.392 54.024 165.781 53C168.256 51.976 170.645 50.9947 172.949 50.056C175.338 49.1173 177.472 48.3493 179.349 47.752C181.226 47.0693 182.506 46.728 183.189 46.728C184.64 46.728 185.493 47.6667 185.749 49.544C186.09 53.896 186.432 58.248 186.773 62.6C187.114 66.8667 187.285 71.304 187.285 75.912C187.285 84.36 184.384 91.0587 178.581 96.008C172.864 100.872 164.501 103.304 153.493 103.304C140.778 103.304 131.008 99.464 124.181 91.784C117.44 84.104 114.069 73.3947 114.069 59.656C114.069 51.72 114.965 44.2107 116.757 37.128C118.549 30.0453 121.28 23.9013 124.949 18.696C128.618 13.4053 133.226 9.22399 138.773 6.15199C144.32 3.08 150.805 1.544 158.229 1.544ZM238.479 1.544C243.343 1.544 247.482 2.184 250.895 3.464C254.308 4.65866 257.082 6.32266 259.215 8.45599C261.434 10.504 263.055 12.936 264.079 15.752C265.103 18.4827 265.615 21.3413 265.615 24.328C265.615 25.7787 265.316 27.016 264.719 28.04C264.207 29.064 263.482 30.0453 262.543 30.984C261.348 32.1787 259.812 33.416 257.935 34.696C256.143 35.976 254.266 37.128 252.303 38.152C250.426 39.176 248.591 40.0293 246.799 40.712C245.092 41.3947 243.77 41.736 242.831 41.736C241.466 41.736 240.783 41.0107 240.783 39.56C240.783 38.9627 240.783 38.3653 240.783 37.768C240.868 37.0853 240.911 36.4027 240.911 35.72C240.911 34.44 240.783 33.1173 240.527 31.752C240.271 30.3013 239.844 29.0213 239.247 27.912C238.65 26.7173 237.882 25.7787 236.943 25.096C236.004 24.328 234.81 23.944 233.359 23.944C229.519 23.944 226.404 26.4613 224.015 31.496C221.626 36.4453 220.431 43.7413 220.431 53.384C220.431 58.504 220.772 62.7707 221.455 66.184C222.138 69.5973 223.076 72.328 224.271 74.376C225.551 76.424 227.044 77.9173 228.751 78.856C230.458 79.7093 232.378 80.136 234.511 80.136C237.754 80.136 240.186 79.24 241.807 77.448C243.514 75.656 244.367 73.1387 244.367 69.896C244.367 67.4213 243.855 65.544 242.831 64.264C241.892 62.8987 240.314 61.8747 238.095 61.192C236.9 60.8507 236.303 60.04 236.303 58.76C236.303 57.9067 236.474 57.3093 236.815 56.968C237.242 56.5413 238.18 56.1147 239.631 55.688C241.508 54.92 243.642 54.024 246.031 53C248.506 51.976 250.895 50.9947 253.199 50.056C255.588 49.1173 257.722 48.3493 259.599 47.752C261.476 47.0693 262.756 46.728 263.439 46.728C264.89 46.728 265.743 47.6667 265.999 49.544C266.34 53.896 266.682 58.248 267.023 62.6C267.364 66.8667 267.535 71.304 267.535 75.912C267.535 84.36 264.634 91.0587 258.831 96.008C253.114 100.872 244.751 103.304 233.743 103.304C221.028 103.304 211.258 99.464 204.431 91.784C197.69 84.104 194.319 73.3947 194.319 59.656C194.319 51.72 195.215 44.2107 197.007 37.128C198.799 30.0453 201.53 23.9013 205.199 18.696C208.868 13.4053 213.476 9.22399 219.023 6.15199C224.57 3.08 231.055 1.544 238.479 1.544ZM277.641 59.144C277.641 44.552 278.196 32.8187 279.305 23.944C280.5 15.0693 281.396 9.26666 281.993 6.536C282.249 5.34133 282.676 4.53066 283.273 4.104C283.87 3.67733 284.596 3.37866 285.449 3.20799C289.033 2.952 292.788 2.824 296.713 2.824C300.98 2.824 304.905 2.952 308.489 3.20799C310.025 3.37866 310.75 4.14666 310.665 5.51199C310.665 6.36533 310.366 8.07199 309.769 10.632C309.172 13.1067 308.489 16.3493 307.721 20.36C306.953 24.2853 306.27 28.936 305.673 34.312C305.076 39.688 304.777 45.6613 304.777 52.232C304.777 58.632 305.033 64.52 305.545 69.896C306.142 75.272 306.74 80.008 307.337 84.104C308.02 88.1147 308.617 91.3573 309.129 93.832C309.726 96.3067 310.025 97.8853 310.025 98.568C310.025 99.336 309.812 99.848 309.385 100.104C309.044 100.36 308.489 100.573 307.721 100.744C305.758 101.085 303.753 101.256 301.705 101.256C299.657 101.256 297.609 101.256 295.561 101.256C293.428 101.256 291.337 101.213 289.289 101.128C287.241 101.128 285.236 101 283.273 100.744C282.334 100.573 281.652 100.317 281.225 99.976C280.798 99.5493 280.414 98.7813 280.073 97.672C279.817 96.392 279.518 94.472 279.177 91.912C278.921 89.352 278.665 86.3653 278.409 82.952C278.153 79.4533 277.94 75.6987 277.769 71.688C277.684 67.592 277.641 63.4107 277.641 59.144ZM319.739 78.856C319.739 73.1387 319.867 67.208 320.123 61.064C320.379 54.92 320.763 48.776 321.275 42.632C321.787 36.4027 322.427 30.2587 323.195 24.2C324.048 18.056 325.03 12.2107 326.139 6.66399C326.395 5.72533 326.779 4.95733 327.291 4.35999C327.888 3.67733 328.656 3.29333 329.595 3.20799C331.984 3.03733 335.44 2.90933 339.963 2.824C344.486 2.65333 349.307 2.56799 354.427 2.56799C360.059 2.56799 365.435 2.65333 370.555 2.824C375.76 2.99466 379.984 3.16533 383.227 3.336C384.166 3.42133 384.806 3.63466 385.147 3.976C385.488 4.31733 385.659 4.70133 385.659 5.128C385.659 5.55466 385.446 6.49333 385.019 7.94399C384.678 9.39466 384.208 11.0587 383.611 12.936C383.099 14.8133 382.502 16.7333 381.819 18.696C381.222 20.5733 380.667 22.2373 380.155 23.688C379.814 24.6267 379.131 25.096 378.107 25.096C377.595 25.096 377.04 25.0107 376.443 24.84C375.846 24.6693 375.078 24.4133 374.139 24.072C372.176 23.3893 369.744 22.792 366.843 22.28C364.027 21.6827 360.699 21.384 356.859 21.384C354.726 21.384 353.019 21.5547 351.739 21.896C350.459 22.2373 349.435 22.8773 348.667 23.816C347.728 24.9253 347.003 26.7173 346.491 29.192C345.979 31.6667 345.723 34.1413 345.723 36.616C345.723 39.176 346.875 40.456 349.179 40.456C351.398 40.456 353.958 40.1147 356.859 39.432C359.846 38.7493 363.174 38.408 366.843 38.408C369.488 38.408 371.664 38.664 373.371 39.176C375.078 39.6027 375.931 40.4133 375.931 41.608C375.931 42.2907 375.76 43.3573 375.419 44.808C375.163 46.2587 374.822 47.88 374.395 49.672C374.054 51.3787 373.627 53.0853 373.115 54.792C372.688 56.4133 372.262 57.8213 371.835 59.016C371.579 59.784 371.28 60.296 370.939 60.552C370.683 60.808 370.299 60.936 369.787 60.936C368.848 60.936 367.142 60.5947 364.667 59.912C362.192 59.2293 359.462 58.888 356.475 58.888C352.208 58.888 349.222 59.7413 347.515 61.448C345.894 63.0693 345.083 65.5013 345.083 68.744C345.083 70.9627 345.211 72.7973 345.467 74.248C345.808 75.6133 346.278 76.68 346.875 77.448C347.558 78.216 348.454 78.7707 349.563 79.112C350.672 79.368 352.038 79.496 353.659 79.496C359.376 79.496 364.24 78.856 368.251 77.576C372.262 76.2107 375.419 74.9307 377.723 73.736C378.406 73.3947 378.875 73.1387 379.131 72.968C379.387 72.7973 379.728 72.712 380.155 72.712C380.923 72.712 381.478 73.1387 381.819 73.992C382.246 75.016 382.672 76.5947 383.099 78.728C383.611 80.8613 384.038 83.1227 384.379 85.512C384.806 87.816 385.104 90.0773 385.275 92.296C385.531 94.5147 385.659 96.2213 385.659 97.416C385.659 99.6347 384.422 100.829 381.947 101C377.766 101.171 373.286 101.299 368.507 101.384C363.814 101.469 359.078 101.512 354.299 101.512C348.667 101.512 343.248 101.469 338.043 101.384C332.923 101.299 328.443 101.171 324.603 101C323.152 100.915 322.043 100.659 321.275 100.232C320.592 99.8053 320.208 98.824 320.123 97.288C319.867 91.656 319.739 85.512 319.739 78.856ZM416.263 58.376C416.263 50.0133 416.562 41.3093 417.159 32.264C417.842 23.2187 419.25 14.4293 421.383 5.896C421.81 4.18933 422.919 3.29333 424.711 3.20799C426.759 3.03733 429.276 2.90933 432.263 2.824C435.25 2.73867 438.279 2.696 441.351 2.696C447.58 2.696 453.255 3.08 458.375 3.84799C463.58 4.53066 468.018 6.02399 471.687 8.328C475.442 10.5467 478.343 13.7893 480.391 18.056C482.439 22.3227 483.463 27.9973 483.463 35.08C483.463 40.968 482.652 46.0453 481.031 50.312C479.495 54.5787 477.404 58.248 474.759 61.32C472.114 64.392 469.084 67.0373 465.671 69.256C462.258 71.3893 458.759 73.2667 455.175 74.888C452.956 75.912 451.122 76.8507 449.671 77.704C448.22 78.472 447.068 79.2827 446.215 80.136C445.362 80.904 444.764 81.7573 444.423 82.696C444.082 83.5493 443.911 84.5733 443.911 85.768C443.911 86.9627 444.039 88.2427 444.295 89.608C444.551 90.888 444.807 92.1253 445.063 93.32C445.404 94.5147 445.703 95.624 445.959 96.648C446.215 97.5867 446.343 98.2693 446.343 98.696C446.343 99.976 445.532 100.701 443.911 100.872C442.546 101.043 440.882 101.128 438.919 101.128C437.042 101.213 435.036 101.256 432.903 101.256C429.404 101.256 426.119 101.128 423.047 100.872C422.108 100.787 421.298 100.573 420.615 100.232C420.018 99.8907 419.591 99.08 419.335 97.8C418.396 92.936 417.628 87.1333 417.031 80.392C416.519 73.5653 416.263 66.2267 416.263 58.376ZM443.527 58.504C444.722 58.504 446.258 58.1627 448.135 57.48C450.098 56.712 451.847 55.56 453.383 54.024C455.26 52.1467 456.796 49.416 457.991 45.832C459.186 42.1627 459.783 38.1947 459.783 33.928C459.783 29.7467 459.015 26.4613 457.479 24.072C455.943 21.6827 453.255 20.488 449.415 20.488C448.135 20.488 447.111 20.616 446.343 20.872C445.66 21.0427 445.063 21.384 444.551 21.896C443.1 23.3467 442.034 26.5467 441.351 31.496C440.754 36.36 440.455 42.3333 440.455 49.416C440.455 52.5733 440.668 54.8773 441.095 56.328C441.522 57.7787 442.332 58.504 443.527 58.504ZM494.749 6.28C495.176 4.31733 496.2 3.29333 497.821 3.20799C499.016 3.12266 500.552 3.03733 502.429 2.952C504.392 2.86666 506.525 2.824 508.829 2.824C511.304 2.824 513.736 2.86666 516.125 2.952C518.6 3.03733 520.562 3.16533 522.013 3.336C522.952 3.42133 523.592 3.63466 523.933 3.976C524.274 4.31733 524.445 4.78666 524.445 5.384C524.445 5.89599 524.189 7.34666 523.677 9.73599C523.165 12.04 522.525 14.984 521.757 18.568C521.074 22.152 520.264 26.1627 519.325 30.6C518.472 35.0373 517.661 39.6027 516.893 44.296C516.21 48.904 515.613 53.512 515.101 58.12C514.589 62.728 514.333 66.952 514.333 70.792C514.333 74.2907 514.76 76.552 515.613 77.576C516.466 78.6 518.002 79.112 520.221 79.112C522.952 79.112 525.725 78.6 528.541 77.576C531.357 76.4667 533.832 75.272 535.965 73.992C536.818 73.48 537.458 73.1387 537.885 72.968C538.312 72.7973 538.696 72.712 539.037 72.712C539.89 72.712 540.488 73.1387 540.829 73.992C541.256 75.1013 541.682 76.7227 542.109 78.856C542.621 80.904 543.048 83.08 543.389 85.384C543.816 87.688 544.157 89.9067 544.413 92.04C544.669 94.1733 544.797 95.88 544.797 97.16C544.797 99.5493 543.432 100.829 540.701 101C537.544 101.171 534.13 101.299 530.461 101.384C526.877 101.469 523.25 101.512 519.581 101.512C514.717 101.512 510.024 101.469 505.501 101.384C501.064 101.299 497.224 101.171 493.981 101C492.53 100.915 491.421 100.659 490.653 100.232C489.97 99.8053 489.586 98.824 489.501 97.288C489.245 91.7413 489.117 85.7253 489.117 79.24C489.117 73.4373 489.202 67.4213 489.373 61.192C489.544 54.9627 489.842 48.7333 490.269 42.504C490.781 36.1893 491.378 30.0027 492.061 23.944C492.829 17.8 493.725 11.912 494.749 6.28ZM584.522 1.92799C585.887 1.24533 586.911 0.903992 587.594 0.903992C588.533 0.903992 589.514 1.24533 590.538 1.92799C596.597 5.93866 601.717 10.632 605.898 16.008C610.165 21.384 613.621 27.4 616.266 34.056C618.911 40.6267 620.831 47.752 622.026 55.432C623.306 63.0267 623.946 71.0907 623.946 79.624C623.946 82.3547 623.861 85.1707 623.69 88.072C623.605 90.9733 623.391 93.96 623.05 97.032C622.879 98.3973 622.453 99.336 621.77 99.848C621.087 100.275 620.149 100.573 618.954 100.744C617.503 100.915 615.882 101 614.09 101C612.383 101.085 610.677 101.128 608.97 101.128C606.837 101.128 604.789 101.085 602.826 101C600.949 101 599.327 100.915 597.962 100.744C596.255 100.488 595.402 99.592 595.402 98.056C595.402 96.6053 595.743 94.472 596.426 91.656C597.109 88.84 597.45 85.4693 597.45 81.544C597.45 78.984 596.767 77.1493 595.402 76.04C594.122 74.8453 592.074 74.248 589.258 74.248C587.381 74.248 585.589 74.4613 583.882 74.888C582.175 75.2293 580.682 75.8267 579.402 76.68C578.122 77.448 577.098 78.5147 576.33 79.88C575.562 81.16 575.178 82.696 575.178 84.488C575.178 87.3893 575.391 89.992 575.818 92.296C576.33 94.6 576.586 96.6053 576.586 98.312C576.757 99.848 576.074 100.659 574.538 100.744C573.087 100.915 571.423 101 569.546 101C567.754 101.085 565.834 101.128 563.786 101.128C562.165 101.128 560.629 101.128 559.178 101.128C557.813 101.128 556.405 101.085 554.954 101C553.759 100.915 552.821 100.701 552.138 100.36C551.541 100.019 551.157 99.2507 550.986 98.056C550.645 95.1547 550.389 92.2533 550.218 89.352C550.133 86.3653 550.09 83.336 550.09 80.264C550.09 72.7547 550.602 65.16 551.626 57.48C552.735 49.8 554.613 42.504 557.258 35.592C559.903 28.5947 563.402 22.1947 567.754 16.392C572.191 10.504 577.781 5.68266 584.522 1.92799ZM575.946 58.376C575.946 59.4 576.373 59.912 577.226 59.912C577.994 59.912 579.317 59.5707 581.194 58.888C583.157 58.2053 585.503 57.736 588.234 57.48C589.77 57.3093 591.05 57.224 592.074 57.224C593.183 57.1387 594.122 57.0107 594.89 56.84C596.255 56.4987 596.938 55.4747 596.938 53.768C596.938 51.72 596.725 49.544 596.298 47.24C595.871 44.936 595.274 42.6747 594.506 40.456C593.823 38.2373 593.013 36.1467 592.074 34.184C591.135 32.2213 590.111 30.6 589.002 29.32C588.319 28.4667 587.807 28.04 587.466 28.04C586.954 28.04 586.314 28.4667 585.546 29.32C584.01 31.1973 582.645 33.3733 581.45 35.848C580.255 38.3227 579.231 40.8827 578.378 43.528C577.61 46.1733 577.013 48.8187 576.586 51.464C576.159 54.024 575.946 56.328 575.946 58.376ZM649.638 101.384C647.675 101.384 645.798 101.341 644.006 101.256C642.299 101.256 640.763 101.171 639.398 101C637.435 100.829 636.326 99.9333 636.07 98.312C635.131 91.7413 634.449 84.744 634.022 77.32C633.595 69.8107 633.382 62.3867 633.382 55.048C633.382 49.5013 633.467 44.1253 633.638 38.92C633.894 33.7147 634.193 28.9787 634.534 24.712C634.875 20.36 635.302 16.6053 635.814 13.448C636.326 10.2053 636.838 7.77333 637.35 6.15199C637.862 4.36 639.057 3.336 640.934 3.07999C642.214 2.99466 643.579 2.952 645.03 2.952C646.481 2.86666 647.931 2.824 649.382 2.824C650.833 2.824 652.198 2.86666 653.478 2.952C654.843 2.952 656.081 2.99466 657.19 3.07999C658.47 3.16533 659.579 3.89066 660.518 5.256C663.249 8.92533 666.918 15.1547 671.526 23.944C676.219 32.7333 681.553 44.2107 687.526 58.376C687.867 59.0587 688.294 59.4 688.806 59.4C689.745 59.4 690.214 58.76 690.214 57.48C690.214 50.7387 689.83 44.4667 689.062 38.664C688.379 32.776 687.611 27.5707 686.758 23.048C685.99 18.5253 685.222 14.7707 684.454 11.784C683.771 8.79733 683.43 6.74933 683.43 5.63999C683.43 4.104 684.198 3.25066 685.734 3.07999C687.099 2.90933 688.721 2.824 690.598 2.824C692.475 2.73867 694.395 2.696 696.358 2.696C698.065 2.696 699.686 2.73867 701.222 2.824C702.843 2.824 704.251 2.90933 705.446 3.07999C706.385 3.16533 707.11 3.42133 707.622 3.84799C708.219 4.27466 708.603 5 708.774 6.02399C709.371 9.26666 709.883 12.9787 710.31 17.16C710.737 21.256 711.078 25.6507 711.334 30.344C711.675 34.952 711.889 39.7733 711.974 44.808C712.145 49.7573 712.23 54.7067 712.23 59.656C712.23 66.7387 712.059 73.5653 711.718 80.136C711.462 86.7067 710.993 92.424 710.31 97.288C709.969 99.6773 708.603 100.915 706.214 101C704.849 101.085 703.142 101.128 701.094 101.128C699.046 101.213 696.998 101.256 694.95 101.256C693.499 101.256 692.177 101.256 690.982 101.256C689.787 101.256 688.721 101.171 687.782 101C686.331 100.829 685.35 100.531 684.838 100.104C684.326 99.6773 683.899 98.7813 683.558 97.416C680.486 87.432 677.073 78.3013 673.318 70.024C669.649 61.7467 665.809 54.3653 661.798 47.88C661.03 46.7707 660.347 46.216 659.75 46.216C659.153 46.216 658.726 46.5147 658.47 47.112C658.214 47.7093 658.086 48.392 658.086 49.16C658.001 54.536 658.171 60.04 658.598 65.672C659.11 71.304 659.665 76.4667 660.262 81.16C660.859 85.8533 661.414 89.8213 661.926 93.064C662.523 96.2213 662.822 98.0133 662.822 98.44C662.822 99.3787 662.566 100.019 662.054 100.36C661.627 100.701 661.03 100.915 660.262 101C658.982 101.171 657.361 101.256 655.398 101.256C653.521 101.341 651.601 101.384 649.638 101.384Z" fill="#FF3181"/>
</svg>
